<svg version="1.1" id="Layer_1" xmlns="http://www.w3.org/2000/svg" xmlns:xlink="http://www.w3.org/1999/xlink" x="0" y="0" viewBox="-265 357 80 80" xml:space="preserve"><style>.st0{fill:#fff}.st10,.st9{opacity:.74;fill:#fff}.st10{opacity:.4}.st15{opacity:.5}.st30{opacity:.8}.st33{opacity:.6}.st36{opacity:.4}.st39{opacity:.3}</style><path class="st0" d="M-225 433.4c-3.1 0-5.9-1.6-8.2-4.7-1.7-2.3-3-5.2-4.3-8-1.3-2.8-2.6-5.7-4-7.1-1.4-1.4-4.3-2.7-7.2-4-2.8-1.3-5.7-2.6-8-4.3-3.1-2.3-4.7-5.1-4.7-8.2 0-3.1 1.6-5.8 4.7-8.2 2.3-1.7 5.2-3 8-4.3 2.8-1.3 5.8-2.6 7.2-4 1.4-1.4 2.7-4.3 4-7.1 1.3-2.8 2.6-5.7 4.3-8 2.3-3.1 5.1-4.7 8.2-4.7s5.9 1.6 8.2 4.7c1.7 2.3 3 5.2 4.3 8 1.3 2.8 2.6 5.7 4 7.1 1.4 1.4 4.3 2.7 7.2 4 2.8 1.3 5.7 2.6 8 4.3 3.1 2.3 4.7 5.1 4.7 8.2 0 3.1-1.6 5.8-4.7 8.2-2.3 1.7-5.2 3-8 4.3-2.8 1.3-5.8 2.6-7.2 4-1.4 1.4-2.7 4.3-4 7.1-1.3 2.8-2.6 5.7-4.3 8-2.3 3.1-5.1 4.7-8.2 4.7zm0-66.4c-2.6 0-4.8 4.8-6.7 9-1.6 3.5-3.1 6.8-5.3 9-2.2 2.2-5.5 3.7-9 5.3-4.2 1.9-9 4.1-9 6.7 0 2.6 4.8 4.8 9 6.7 3.5 1.6 6.8 3.1 9 5.3 2.2 2.2 3.7 5.5 5.3 9 1.9 4.2 4.1 9 6.7 9 2.6 0 4.8-4.8 6.7-9 1.6-3.5 3.1-6.8 5.3-9 2.2-2.2 5.5-3.7 9-5.3 4.2-1.9 9-4.1 9-6.7 0-2.6-4.8-4.8-9-6.7-3.5-1.6-6.8-3.1-9-5.3-2.2-2.2-3.7-5.5-5.3-9-1.9-4.2-4.1-9-6.7-9z"/><linearGradient id="SVGID_1_" gradientUnits="userSpaceOnUse" x1="-219.999" y1="389.314" x2="-219.999" y2="360.727" gradientTransform="rotate(-45.001 -225.056 397.134)"><stop offset="0" stop-color="#2c394c"/><stop offset="1" stop-color="#445b72"/></linearGradient><path d="M-248.7 384.5c.9-.4 1.9-.9 2.8-1.3-1-3.2-1.6-6.1-.3-7.4 1.8-1.8 6.8 0 11.1 1.6 3.6 1.3 7 2.6 10.1 2.6 2.4 0 5-.8 7.7-1.7-.4-.7-.7-1.5-1-2.3-.5-1.2-1.1-2.4-1.7-3.5-1.9.7-3.7 1.2-5 1.2-2 0-5-1.1-7.9-2.2-2.9-1.1-5.9-2.2-8.7-2.6-3.9-.6-6.9.2-9.1 2.4-2.2 2.2-3 5.3-2.4 9.1.3 1.8.8 3.7 1.4 5.5 1-.4 2-.9 3-1.4z" fill="url(#SVGID_1_)"/><linearGradient id="SVGID_2_" gradientUnits="userSpaceOnUse" x1="-247.018" y1="408.144" x2="-247.018" y2="376.159" gradientTransform="rotate(-45.001 -225.056 397.134)"><stop offset="0" stop-color="#2c394c"/><stop offset="1" stop-color="#445b72"/></linearGradient><path d="M-237.5 420.6c-.4-.9-.8-1.8-1.3-2.7-3.2 1.1-6.2 1.7-7.5.3-1.8-1.8 0-6.8 1.6-11.1 1.3-3.6 2.6-7 2.6-10.1 0-2.4-.8-5-1.7-7.8-.8.4-1.5.7-2.3 1.1-1.2.5-2.4 1.1-3.5 1.6.7 1.9 1.2 3.7 1.2 5.1 0 2-1.1 5-2.2 7.9-1.1 2.9-2.2 5.9-2.6 8.7-.6 3.9.2 6.9 2.4 9.1 2.2 2.2 5.3 3 9.1 2.4 1.8-.3 3.7-.8 5.6-1.5-.5-.9-.9-1.9-1.4-3z" fill="url(#SVGID_2_)"/><linearGradient id="SVGID_3_" gradientUnits="userSpaceOnUse" x1="-202.825" y1="417.998" x2="-202.825" y2="386.013" gradientTransform="rotate(-45.001 -225.056 397.134)"><stop offset="0" stop-color="#2c394c"/><stop offset="1" stop-color="#445b72"/></linearGradient><path d="M-208.4 368.8c-1.8.3-3.7.8-5.6 1.5.5 1 1 2 1.4 3.1.4.9.8 1.8 1.3 2.7 3.2-1.1 6.2-1.7 7.5-.3 1.8 1.8 0 6.8-1.6 11.1-1.3 3.6-2.6 7-2.6 10.1 0 2.4.8 5 1.7 7.8.8-.4 1.5-.7 2.3-1.1 1.2-.5 2.4-1.1 3.5-1.6-.7-1.9-1.2-3.7-1.2-5.1 0-2 1.1-5 2.2-7.9 1.1-2.9 2.2-5.9 2.6-8.7.6-3.9-.2-6.9-2.4-9.1-2.1-2.3-5.2-3.1-9.1-2.5z" fill="url(#SVGID_3_)"/><linearGradient id="SVGID_4_" gradientUnits="userSpaceOnUse" x1="-229.844" y1="433.43" x2="-229.844" y2="404.844" gradientTransform="rotate(-45.001 -225.056 397.134)"><stop offset="0" stop-color="#2c394c"/><stop offset="1" stop-color="#445b72"/></linearGradient><path d="M-201.3 409.5c-.9.4-1.9.9-2.8 1.3 1 3.2 1.6 6.1.3 7.4-1.8 1.8-6.8 0-11.1-1.6-3.6-1.3-7-2.6-10.1-2.6-2.4 0-5 .8-7.7 1.7.4.7.7 1.5 1 2.3.5 1.2 1.1 2.4 1.7 3.5 1.9-.7 3.7-1.2 5-1.2 2 0 5 1.1 7.9 2.2 2.9 1.1 5.9 2.2 8.7 2.6 3.9.6 6.9-.2 9.1-2.4 2.2-2.2 3-5.3 2.4-9.1-.3-1.8-.8-3.7-1.4-5.5-1 .4-2 .9-3 1.4z" fill="url(#SVGID_4_)"/><linearGradient id="SVGID_5_" gradientUnits="userSpaceOnUse" x1="-225.273" y1="428.81" x2="-217.056" y2="420.592" gradientTransform="rotate(-45.001 -225.056 397.134)"><stop offset="0" stop-color="#242f3d"/><stop offset="1" stop-color="#fff" stop-opacity="0"/></linearGradient><path d="M-209 418.6s12.6 4 12.3-3c0 0 .1-2.2-1.6-7.5l-5.8 2.7s1.6 4.6.9 6.4c-.6 1.6-2 2.3-5.8 1.4z" opacity=".7" fill="url(#SVGID_5_)"/><linearGradient id="SVGID_6_" gradientUnits="userSpaceOnUse" x1="-182.121" y1="453.745" x2="-173.904" y2="445.528" gradientTransform="rotate(-134.999 -208.565 418.46)"><stop offset="0" stop-color="#242f3d"/><stop offset="1" stop-color="#fff" stop-opacity="0"/></linearGradient><path d="M-203.4 381s3.9-12.6-3-12.3c0 0-2.2-.1-7.5 1.6l2.7 5.8s4.6-1.6 6.4-.9c1.6.6 2.3 2 1.4 5.8z" opacity=".7" fill="url(#SVGID_6_)"/><linearGradient id="SVGID_7_" gradientUnits="userSpaceOnUse" x1="-207.056" y1="496.898" x2="-198.839" y2="488.681" gradientTransform="rotate(134.999 -201.735 427.294)"><stop offset="0" stop-color="#242f3d"/><stop offset="1" stop-color="#fff" stop-opacity="0"/></linearGradient><path d="M-241 375.4s-12.6-4-12.3 3c0 0-.1 2.2 1.6 7.5l5.8-2.7s-1.6-4.6-.9-6.4c.6-1.6 2-2.3 5.8-1.4z" opacity=".7" fill="url(#SVGID_7_)"/><linearGradient id="SVGID_8_" gradientUnits="userSpaceOnUse" x1="-250.209" y1="471.962" x2="-241.992" y2="463.745" gradientTransform="rotate(45.001 -185.244 448.62)"><stop offset="0" stop-color="#242f3d"/><stop offset="1" stop-color="#fff" stop-opacity="0"/></linearGradient><path d="M-246.6 413s-3.9 12.6 3 12.3c0 0 2.2.1 7.5-1.6l-2.7-5.8s-4.6 1.6-6.4.9c-1.6-.6-2.3-2-1.4-5.8z" opacity=".7" fill="url(#SVGID_8_)"/><path class="st9" d="M-228.9 423.6s6.1 11.7 10.8 6.6c0 0 1.6-1.5 4.2-6.5l-6-2.2s-2.2 4.4-3.8 5.2c-1.8.7-3.2.2-5.2-3.1zM-198.4 400.9s11.7-6.1 6.6-10.8c0 0-1.5-1.6-6.5-4.2l-2.2 6s4.4 2.2 5.2 3.8c.7 1.8.2 3.2-3.1 5.2z"/><path class="st10" d="M-221.1 370.4s-6.1-11.7-10.8-6.6c0 0-1.6 1.5-4.2 6.5l6 2.2s2.2-4.4 3.8-5.2c1.8-.7 3.2-.2 5.2 3.1zM-251.6 393.1s-11.7 6.1-6.6 10.8c0 0 1.5 1.6 6.5 4.2l2.2-6s-4.4-2.2-5.2-3.8c-.7-1.8-.2-3.2 3.1-5.2z"/><linearGradient id="SVGID_9_" gradientUnits="userSpaceOnUse" x1="-208.007" y1="417.998" x2="-208.007" y2="404.797" gradientTransform="rotate(-45.001 -225.056 397.134)"><stop offset="0" stop-color="#242f3d"/><stop offset=".122" stop-color="#49525d" stop-opacity=".878"/><stop offset=".357" stop-color="#898f96" stop-opacity=".643"/><stop offset=".57" stop-color="#bcbfc3" stop-opacity=".43"/><stop offset=".755" stop-color="#e0e2e4" stop-opacity=".245"/><stop offset=".905" stop-color="#f7f7f8" stop-opacity=".095"/><stop offset="1" stop-color="#fff" stop-opacity="0"/></linearGradient><path d="M-206.2 389.1c-1 2.8-1.8 5.4-1.8 7.8 0 2.4.8 5 1.7 7.8.8-.4 1.5-.7 2.3-1.1 1.2-.5 2.4-1.1 3.5-1.6-.7-1.9-1.2-3.7-1.2-5.1 0-2 1.1-5 2.2-7.9.3-.8.6-1.6.9-2.5l-7.6 2.6z" opacity=".45" fill="url(#SVGID_9_)"/><linearGradient id="SVGID_10_" gradientUnits="userSpaceOnUse" x1="-219.67" y1="433.084" x2="-219.67" y2="421.601" gradientTransform="rotate(-45.001 -225.056 397.134)"><stop offset="0" stop-color="#fff" stop-opacity="0"/><stop offset=".095" stop-color="#f7f7f8" stop-opacity=".095"/><stop offset=".245" stop-color="#e0e2e4" stop-opacity=".245"/><stop offset=".43" stop-color="#bcbfc3" stop-opacity=".43"/><stop offset=".643" stop-color="#898f96" stop-opacity=".643"/><stop offset=".878" stop-color="#49525d" stop-opacity=".878"/><stop offset="1" stop-color="#242f3d"/></linearGradient><path d="M-201.3 409.5c-.9.4-1.9.9-2.8 1.3 1 3.2 1.6 6.1.3 7.4-.1.1-.3.2-.4.3l6.4 2.2c1.1-1.9 1.4-4.3 1-7.2-.3-1.8-.8-3.7-1.4-5.5-1.1.5-2.1 1-3.1 1.5z" opacity=".36" fill="url(#SVGID_10_)"/><g><path class="st0" d="M-217.3 378.2c1.3 2.7 2.6 5.1 4.3 6.8 1.7 1.7 4.1 3 6.7 4.3l.9-2.4c.4-1.2.9-2.4 1.3-3.6-1.8-.9-3.5-1.8-4.4-2.8-1.4-1.4-2.7-4.3-4-7.2-.4-.8-.7-1.6-1.1-2.4l-3.7 7.3zM-199.4 389.1c-.4 1-.7 1.9-1.1 2.9 3 1.5 5.5 3.2 5.5 5 0 .2 0 .4-.1.6l6.1-3c-.6-2.1-2.1-4-4.4-5.7-1.5-1.1-3.2-2-4.9-2.9-.4 1-.7 2-1.1 3.1z"/></g><g><linearGradient id="SVGID_11_" gradientUnits="userSpaceOnUse" x1="-164.855" y1="442.934" x2="-164.855" y2="429.733" gradientTransform="rotate(-134.999 -208.565 418.46)"><stop offset="0" stop-color="#242f3d"/><stop offset=".122" stop-color="#49525d" stop-opacity=".878"/><stop offset=".357" stop-color="#898f96" stop-opacity=".643"/><stop offset=".57" stop-color="#bcbfc3" stop-opacity=".43"/><stop offset=".755" stop-color="#e0e2e4" stop-opacity=".245"/><stop offset=".905" stop-color="#f7f7f8" stop-opacity=".095"/><stop offset="1" stop-color="#fff" stop-opacity="0"/></linearGradient><path d="M-232.9 378.2c2.8 1 5.4 1.8 7.8 1.8 2.4 0 5-.8 7.8-1.7-.4-.8-.7-1.5-1.1-2.3-.5-1.2-1.1-2.4-1.6-3.5-1.9.7-3.7 1.2-5.1 1.2-2 0-5-1.1-7.9-2.2-.8-.3-1.6-.6-2.5-.9l2.6 7.6z" opacity=".45" fill="url(#SVGID_11_)"/><linearGradient id="SVGID_12_" gradientUnits="userSpaceOnUse" x1="-176.517" y1="458.019" x2="-176.517" y2="446.536" gradientTransform="rotate(-134.999 -208.565 418.46)"><stop offset="0" stop-color="#fff" stop-opacity="0"/><stop offset=".095" stop-color="#f7f7f8" stop-opacity=".095"/><stop offset=".245" stop-color="#e0e2e4" stop-opacity=".245"/><stop offset=".43" stop-color="#bcbfc3" stop-opacity=".43"/><stop offset=".643" stop-color="#898f96" stop-opacity=".643"/><stop offset=".878" stop-color="#49525d" stop-opacity=".878"/><stop offset="1" stop-color="#242f3d"/></linearGradient><path d="M-212.5 373.3c.4.9.9 1.9 1.3 2.8 3.2-1 6.1-1.6 7.4-.3.1.1.2.3.3.4l2.2-6.4c-1.9-1.1-4.3-1.4-7.2-1-1.8.3-3.7.8-5.5 1.4.5 1.1 1 2.1 1.5 3.1z" opacity=".36" fill="url(#SVGID_12_)"/></g><g class="st15"><path class="st0" d="M-243.8 389.3c2.7-1.3 5.1-2.6 6.8-4.3 1.7-1.7 3-4.1 4.3-6.7l-2.4-.9c-1.2-.4-2.4-.9-3.6-1.3-.9 1.8-1.8 3.5-2.8 4.4-1.4 1.4-4.3 2.7-7.2 4-.8.4-1.6.7-2.4 1.1l7.3 3.7zM-232.9 371.4c1 .4 1.9.7 2.9 1.1 1.5-3 3.2-5.5 5-5.5.2 0 .4 0 .6.1l-3-6.1c-2.1.6-4 2.1-5.7 4.4-1.1 1.5-2 3.2-2.9 4.9 1 .4 2 .7 3.1 1.1z"/></g><g class="st15"><linearGradient id="SVGID_13_" gradientUnits="userSpaceOnUse" x1="-189.791" y1="486.087" x2="-189.791" y2="472.885" gradientTransform="rotate(134.999 -201.735 427.294)"><stop offset="0" stop-color="#242f3d"/><stop offset=".122" stop-color="#49525d" stop-opacity=".878"/><stop offset=".357" stop-color="#898f96" stop-opacity=".643"/><stop offset=".57" stop-color="#bcbfc3" stop-opacity=".43"/><stop offset=".755" stop-color="#e0e2e4" stop-opacity=".245"/><stop offset=".905" stop-color="#f7f7f8" stop-opacity=".095"/><stop offset="1" stop-color="#fff" stop-opacity="0"/></linearGradient><path d="M-243.8 404.9c1-2.8 1.8-5.4 1.8-7.8 0-2.4-.8-5-1.7-7.8-.8.4-1.5.7-2.3 1.1-1.2.5-2.4 1.1-3.5 1.6.7 1.9 1.2 3.7 1.2 5.1 0 2-1.1 5-2.2 7.9-.3.8-.6 1.6-.9 2.5l7.6-2.6z" opacity=".45" fill="url(#SVGID_13_)"/><linearGradient id="SVGID_14_" gradientUnits="userSpaceOnUse" x1="-201.453" y1="501.172" x2="-201.453" y2="489.689" gradientTransform="rotate(134.999 -201.735 427.294)"><stop offset="0" stop-color="#fff" stop-opacity="0"/><stop offset=".095" stop-color="#f7f7f8" stop-opacity=".095"/><stop offset=".245" stop-color="#e0e2e4" stop-opacity=".245"/><stop offset=".43" stop-color="#bcbfc3" stop-opacity=".43"/><stop offset=".643" stop-color="#898f96" stop-opacity=".643"/><stop offset=".878" stop-color="#49525d" stop-opacity=".878"/><stop offset="1" stop-color="#242f3d"/></linearGradient><path d="M-248.7 384.5c.9-.4 1.9-.9 2.8-1.3-1-3.2-1.6-6.1-.3-7.4.1-.1.3-.2.4-.3l-6.4-2.2c-1.1 1.9-1.4 4.3-1 7.2.3 1.8.8 3.7 1.4 5.5 1.1-.5 2.1-1 3.1-1.5z" opacity=".36" fill="url(#SVGID_14_)"/></g><g><path class="st0" d="M-232.7 415.8c-1.3-2.7-2.6-5.1-4.3-6.8-1.7-1.7-4.1-3-6.7-4.3l-.9 2.4c-.4 1.2-.9 2.4-1.3 3.6 1.8.9 3.5 1.8 4.4 2.8 1.4 1.4 2.7 4.3 4 7.2.4.8.7 1.6 1.1 2.4l3.7-7.3zM-250.6 404.9c.4-1 .7-1.9 1.1-2.9-3-1.5-5.5-3.2-5.5-5 0-.2 0-.4.1-.6l-6.1 3c.6 2.1 2.1 4 4.4 5.7 1.5 1.1 3.2 2 4.9 2.9.4-1 .7-2 1.1-3.1z"/></g><g><linearGradient id="SVGID_15_" gradientUnits="userSpaceOnUse" x1="-232.943" y1="461.151" x2="-232.943" y2="447.95" gradientTransform="rotate(45.001 -185.244 448.62)"><stop offset="0" stop-color="#242f3d"/><stop offset=".122" stop-color="#49525d" stop-opacity=".878"/><stop offset=".357" stop-color="#898f96" stop-opacity=".643"/><stop offset=".57" stop-color="#bcbfc3" stop-opacity=".43"/><stop offset=".755" stop-color="#e0e2e4" stop-opacity=".245"/><stop offset=".905" stop-color="#f7f7f8" stop-opacity=".095"/><stop offset="1" stop-color="#fff" stop-opacity="0"/></linearGradient><path d="M-217.1 415.8c-2.8-1-5.4-1.8-7.8-1.8-2.4 0-5 .8-7.8 1.7.4.8.7 1.5 1.1 2.3.5 1.2 1.1 2.4 1.6 3.5 1.9-.7 3.7-1.2 5.1-1.2 2 0 5 1.1 7.9 2.2.8.3 1.6.6 2.5.9l-2.6-7.6z" opacity=".45" fill="url(#SVGID_15_)"/><linearGradient id="SVGID_16_" gradientUnits="userSpaceOnUse" x1="-244.606" y1="476.236" x2="-244.606" y2="464.753" gradientTransform="rotate(45.001 -185.244 448.62)"><stop offset="0" stop-color="#fff" stop-opacity="0"/><stop offset=".095" stop-color="#f7f7f8" stop-opacity=".095"/><stop offset=".245" stop-color="#e0e2e4" stop-opacity=".245"/><stop offset=".43" stop-color="#bcbfc3" stop-opacity=".43"/><stop offset=".643" stop-color="#898f96" stop-opacity=".643"/><stop offset=".878" stop-color="#49525d" stop-opacity=".878"/><stop offset="1" stop-color="#242f3d"/></linearGradient><path d="M-237.5 420.7c-.4-.9-.9-1.9-1.3-2.8-3.2 1-6.1 1.6-7.4.3-.1-.1-.2-.3-.3-.4l-2.2 6.4c1.9 1.1 4.3 1.4 7.2 1 1.8-.3 3.7-.8 5.5-1.4-.5-1.1-1-2.1-1.5-3.1z" opacity=".36" fill="url(#SVGID_16_)"/></g><g><path class="st0" d="M-206.2 404.7c-2.7 1.3-5.1 2.6-6.8 4.3-1.7 1.7-3 4.1-4.3 6.7l2.4.9c1.2.4 2.4.9 3.6 1.3.9-1.8 1.8-3.5 2.8-4.4 1.4-1.4 4.3-2.7 7.2-4 .8-.4 1.6-.7 2.4-1.1l-7.3-3.7zM-217.1 422.6c-1-.4-1.9-.7-2.9-1.1-1.5 3-3.2 5.5-5 5.5-.2 0-.4 0-.6-.1l3 6.1c2.1-.6 4-2.1 5.7-4.4 1.1-1.5 2-3.2 2.9-4.9-1-.4-2-.7-3.1-1.1z"/></g><linearGradient id="SVGID_17_" gradientUnits="userSpaceOnUse" x1="-253.287" y1="374.392" x2="-224.94" y2="374.392" gradientTransform="rotate(-45.001 -225.056 397.134)"><stop offset="0" stop-color="#fff"/><stop offset=".797" stop-color="#fff" stop-opacity="0"/></linearGradient><path d="M-258.2 403.9c-4.6-4.2 4.2-9.4 6.2-10.6 1.7-1.1 3.9-2.1 5.9-3 3.5-1.6 6.8-3.1 9-5.3l-4.5-4.5c-1.4 1.4-4.3 2.7-7.2 4-2.8 1.3-5.7 2.6-8 4.3-3.1 2.3-4.7 5.1-4.7 8.2.1 2.6 1.2 4.9 3.3 6.9z" opacity=".35" fill="url(#SVGID_17_)"/><linearGradient id="SVGID_18_" gradientUnits="userSpaceOnUse" x1="-253.366" y1="374.313" x2="-225.019" y2="374.313" gradientTransform="rotate(-90 -225 397)"><stop offset="0" stop-color="#fff"/><stop offset=".797" stop-color="#fff" stop-opacity="0"/></linearGradient><path d="M-243.6 425.3c-6.2.3-3.7-9.6-3.1-11.8.4-2 1.3-4.2 2.1-6.3 1.3-3.6 2.6-7 2.6-10.1h-6.4c0 2-1.1 5-2.2 7.9-1.1 2.9-2.2 5.9-2.6 8.7-.6 3.9.2 6.9 2.4 9.1 1.9 1.8 4.3 2.7 7.2 2.5z" opacity=".3" fill="url(#SVGID_18_)"/><linearGradient id="SVGID_19_" gradientUnits="userSpaceOnUse" x1="-253.287" y1="374.392" x2="-224.94" y2="374.392" gradientTransform="rotate(-134.999 -224.977 397.056)"><stop offset="0" stop-color="#fff"/><stop offset=".797" stop-color="#fff" stop-opacity="0"/></linearGradient><path d="M-218.1 430.2c-4.2 4.6-9.4-4.2-10.6-6.2-1.1-1.7-2.1-3.9-3-5.9-1.6-3.5-3.1-6.8-5.3-9l-4.5 4.5c1.4 1.4 2.7 4.3 4 7.2 1.3 2.8 2.6 5.7 4.3 8 2.3 3.1 5.1 4.7 8.2 4.7 2.6-.1 4.9-1.2 6.9-3.3z" opacity=".25" fill="url(#SVGID_19_)"/><linearGradient id="SVGID_20_" gradientUnits="userSpaceOnUse" x1="-253.366" y1="374.313" x2="-225.019" y2="374.313" gradientTransform="rotate(180 -225 397)"><stop offset="0" stop-color="#fff"/><stop offset=".797" stop-color="#fff" stop-opacity="0"/></linearGradient><path d="M-196.7 415.6c.3 6.2-9.6 3.7-11.8 3.1-2-.4-4.2-1.3-6.3-2.1-3.6-1.3-7-2.6-10.1-2.6v6.4c2 0 5 1.1 7.9 2.2 2.9 1.1 5.9 2.2 8.7 2.6 3.9.6 6.9-.2 9.1-2.4 1.8-1.9 2.7-4.3 2.5-7.2z" opacity=".2" fill="url(#SVGID_20_)"/><linearGradient id="SVGID_21_" gradientUnits="userSpaceOnUse" x1="-253.287" y1="374.392" x2="-224.94" y2="374.392" gradientTransform="rotate(134.999 -224.944 397.023)"><stop offset="0" stop-color="#fff"/><stop offset=".797" stop-color="#fff" stop-opacity="0"/></linearGradient><path d="M-191.8 390.1c4.6 4.2-4.2 9.4-6.2 10.6-1.7 1.1-3.9 2.1-5.9 3-3.5 1.6-6.8 3.1-9 5.3l4.5 4.5c1.4-1.4 4.3-2.7 7.2-4 2.8-1.3 5.7-2.6 8-4.3 3.1-2.3 4.7-5.1 4.7-8.2-.1-2.6-1.2-4.9-3.3-6.9z" opacity=".2" fill="url(#SVGID_21_)"/><linearGradient id="SVGID_22_" gradientUnits="userSpaceOnUse" x1="-253.366" y1="374.313" x2="-225.019" y2="374.313" gradientTransform="rotate(90 -225 397)"><stop offset="0" stop-color="#fff"/><stop offset=".797" stop-color="#fff" stop-opacity="0"/></linearGradient><path d="M-206.4 368.7c6.2-.3 3.7 9.6 3.1 11.8-.4 2-1.3 4.2-2.1 6.3-1.3 3.6-2.6 7-2.6 10.1h6.4c0-2 1.1-5 2.2-7.9 1.1-2.9 2.2-5.9 2.6-8.7.6-3.9-.2-6.9-2.4-9.1-1.9-1.8-4.3-2.7-7.2-2.5z" opacity=".2" fill="url(#SVGID_22_)"/><linearGradient id="SVGID_23_" gradientUnits="userSpaceOnUse" x1="-253.287" y1="374.392" x2="-224.94" y2="374.392" gradientTransform="rotate(45.001 -224.866 396.944)"><stop offset="0" stop-color="#fff"/><stop offset=".797" stop-color="#fff" stop-opacity="0"/></linearGradient><path d="M-231.9 363.8c4.2-4.6 9.4 4.2 10.6 6.2 1.1 1.7 2.1 3.9 3 5.9 1.6 3.5 3.1 6.8 5.3 9l4.5-4.5c-1.4-1.4-2.7-4.3-4-7.2-1.3-2.8-2.6-5.7-4.3-8-2.3-3.1-5.1-4.7-8.2-4.7-2.6.1-4.9 1.2-6.9 3.3z" opacity=".35" fill="url(#SVGID_23_)"/><linearGradient id="SVGID_24_" gradientUnits="userSpaceOnUse" x1="-253.366" y1="374.313" x2="-225.019" y2="374.313"><stop offset="0" stop-color="#fff"/><stop offset=".797" stop-color="#fff" stop-opacity="0"/></linearGradient><path d="M-253.3 378.4c-.3-6.2 9.6-3.7 11.8-3.1 2 .4 4.2 1.3 6.3 2.1 3.6 1.3 7 2.6 10.1 2.6v-6.4c-2 0-5-1.1-7.9-2.2-2.9-1.1-5.9-2.2-8.7-2.6-3.9-.6-6.9.2-9.1 2.4-1.8 1.9-2.7 4.3-2.5 7.2z" opacity=".47" fill="url(#SVGID_24_)"/><g><defs><path id="SVGID_25_" d="M-253.3 378.4c-.3-6.2 9.6-3.7 11.8-3.1 2 .4 4.2 1.3 6.3 2.1 3.6 1.3 7 2.6 10.1 2.6v-6.4c-2 0-5-1.1-7.9-2.2-2.9-1.1-5.9-2.2-8.7-2.6-3.9-.6-6.9.2-9.1 2.4-1.8 1.9-2.7 4.3-2.5 7.2z"/></defs><clipPath id="SVGID_26_"><use xlink:href="#SVGID_25_" overflow="visible"/></clipPath><g opacity=".63" clip-path="url(#SVGID_26_)"><linearGradient id="SVGID_27_" gradientUnits="userSpaceOnUse" x1="-255.33" y1="376.552" x2="-225.016" y2="376.552"><stop offset="0" stop-color="#fff"/><stop offset="1" stop-color="#fff" stop-opacity="0"/></linearGradient><path d="M-253.4 378.5c-.2-.7-.3-1.5-.1-2.2.2-.8.7-1.5 1.4-2s1.4-.8 2.1-1.1c.7-.2 1.5-.4 2.2-.4 1.5-.1 2.9-.1 4.3.1.7.1 1.4.2 2.1.4l.5.1.4.1 1 .3c2.7.8 5.1 1.9 7.4 3.1 1.2.6 2.3 1.1 3.5 1.7 1.2.6 2.3 1 3.7 1.5-1.3.4-2.7.5-4.1.4-1.4-.1-2.7-.3-4-.6-1.3-.3-2.6-.7-3.8-1.1-1.2-.4-2.5-.8-3.6-1.1l-.9-.2-.5-.1-.4-.1c-.6-.2-1.2-.3-1.8-.5-1.2-.3-2.4-.5-3.6-.7-1.2-.2-2.3-.2-3.3.1-.5.1-.9.4-1.3.8-.6.2-.9.8-1.2 1.5z" fill="url(#SVGID_27_)"/></g></g><g class="st30"><defs><path id="SVGID_28_" class="st30" d="M-258.2 403.9c-4.6-4.2 4.2-9.4 6.2-10.6 1.7-1.1 3.9-2.1 5.9-3 3.5-1.6 6.8-3.1 9-5.3l-4.5-4.5c-1.4 1.4-4.3 2.7-7.2 4-2.8 1.3-5.7 2.6-8 4.3-3.1 2.3-4.7 5.1-4.7 8.2.1 2.6 1.2 4.9 3.3 6.9z"/></defs><clipPath id="SVGID_29_"><use xlink:href="#SVGID_28_" overflow="visible"/></clipPath><g opacity=".63" clip-path="url(#SVGID_29_)"><linearGradient id="SVGID_30_" gradientUnits="userSpaceOnUse" x1="-260.906" y1="403.988" x2="-239.471" y2="382.553"><stop offset="0" stop-color="#fff"/><stop offset="1" stop-color="#fff" stop-opacity="0"/></linearGradient><path d="M-258.1 404c-.7-.3-1.3-.8-1.7-1.5-.4-.7-.5-1.6-.5-2.4.1-.8.4-1.6.7-2.3.4-.7.8-1.3 1.3-1.9.9-1.1 2-2.1 3.1-2.9.6-.4 1.1-.8 1.7-1.2l.5-.3.4-.2.9-.5c2.4-1.3 4.9-2.2 7.4-3.1 1.2-.4 2.4-.8 3.7-1.3 1.2-.4 2.4-.9 3.6-1.5-.6 1.2-1.6 2.3-2.6 3.2-1 .9-2.2 1.7-3.3 2.4-1.1.7-2.3 1.3-3.5 2-1.1.6-2.3 1.2-3.4 1.8l-.8.4-.5.3-.4.2c-.5.3-1.1.6-1.6.9-1.1.6-2.1 1.3-3 2-.9.7-1.8 1.5-2.3 2.4-.3.4-.4.9-.4 1.5.1.7.3 1.3.7 2z" fill="url(#SVGID_30_)"/></g></g><g class="st33"><defs><path id="SVGID_31_" class="st33" d="M-243.6 425.3c-6.2.3-3.7-9.6-3.1-11.8.4-2 1.3-4.2 2.1-6.3 1.3-3.6 2.6-7 2.6-10.1h-6.4c0 2-1.1 5-2.2 7.9-1.1 2.9-2.2 5.9-2.6 8.7-.6 3.9.2 6.9 2.4 9.1 1.9 1.8 4.3 2.7 7.2 2.5z"/></defs><clipPath id="SVGID_32_"><use xlink:href="#SVGID_31_" overflow="visible"/></clipPath><g opacity=".63" clip-path="url(#SVGID_32_)"><linearGradient id="SVGID_33_" gradientUnits="userSpaceOnUse" x1="-245.448" y1="427.33" x2="-245.448" y2="397.017"><stop offset="0" stop-color="#fff"/><stop offset="1" stop-color="#fff" stop-opacity="0"/></linearGradient><path d="M-243.5 425.4c-.7.2-1.5.3-2.2.1-.8-.2-1.5-.7-2-1.4s-.8-1.4-1.1-2.1c-.2-.7-.4-1.5-.4-2.2-.1-1.5-.1-2.9.1-4.3.1-.7.2-1.4.4-2.1l.1-.5.1-.4.3-1c.8-2.7 1.9-5.1 3.1-7.4.6-1.2 1.1-2.3 1.7-3.5.6-1.2 1-2.3 1.5-3.7.4 1.3.5 2.7.4 4.1-.1 1.4-.3 2.7-.6 4-.3 1.3-.7 2.6-1.1 3.8-.4 1.2-.8 2.5-1.1 3.6l-.2.9-.1.5-.1.4c-.2.6-.3 1.2-.5 1.8-.3 1.2-.5 2.4-.7 3.6-.2 1.2-.2 2.3.1 3.3.1.5.4.9.8 1.3.2.6.8.9 1.5 1.2z" fill="url(#SVGID_33_)"/></g></g><g class="st36"><defs><path id="SVGID_34_" class="st36" d="M-218.1 430.2c-4.2 4.6-9.4-4.2-10.6-6.2-1.1-1.7-2.1-3.9-3-5.9-1.6-3.5-3.1-6.8-5.3-9l-4.5 4.5c1.4 1.4 2.7 4.3 4 7.2 1.3 2.8 2.6 5.7 4.3 8 2.3 3.1 5.1 4.7 8.2 4.7 2.6-.1 4.9-1.2 6.9-3.3z"/></defs><clipPath id="SVGID_35_"><use xlink:href="#SVGID_34_" overflow="visible"/></clipPath><g opacity=".63" clip-path="url(#SVGID_35_)"><linearGradient id="SVGID_36_" gradientUnits="userSpaceOnUse" x1="-218.012" y1="432.906" x2="-239.447" y2="411.471"><stop offset="0" stop-color="#fff"/><stop offset="1" stop-color="#fff" stop-opacity="0"/></linearGradient><path d="M-218 430.1c-.3.7-.8 1.3-1.5 1.7-.7.4-1.6.5-2.4.5-.8-.1-1.6-.4-2.3-.7-.7-.4-1.3-.8-1.9-1.3-1.1-.9-2.1-2-2.9-3.1-.4-.6-.8-1.1-1.2-1.7l-.3-.5-.2-.4-.5-.9c-1.3-2.4-2.2-4.9-3.1-7.4-.4-1.2-.8-2.4-1.3-3.7-.4-1.2-.9-2.4-1.5-3.6 1.2.6 2.3 1.6 3.2 2.6.9 1 1.7 2.2 2.4 3.3.7 1.1 1.3 2.3 2 3.5.6 1.1 1.2 2.3 1.8 3.4l.4.8.3.5.2.4c.3.5.6 1.1.9 1.6.6 1.1 1.3 2.1 2 3 .7.9 1.5 1.8 2.4 2.3.4.3.9.4 1.5.4.7-.1 1.3-.3 2-.7z" fill="url(#SVGID_36_)"/></g></g><g class="st39"><defs><path id="SVGID_37_" class="st39" d="M-196.7 415.6c.3 6.2-9.6 3.7-11.8 3.1-2-.4-4.2-1.3-6.3-2.1-3.6-1.3-7-2.6-10.1-2.6v6.4c2 0 5 1.1 7.9 2.2 2.9 1.1 5.9 2.2 8.7 2.6 3.9.6 6.9-.2 9.1-2.4 1.8-1.9 2.7-4.3 2.5-7.2z"/></defs><clipPath id="SVGID_38_"><use xlink:href="#SVGID_37_" overflow="visible"/></clipPath><g opacity=".63" clip-path="url(#SVGID_38_)"><linearGradient id="SVGID_39_" gradientUnits="userSpaceOnUse" x1="-194.67" y1="417.448" x2="-224.984" y2="417.448"><stop offset="0" stop-color="#fff"/><stop offset="1" stop-color="#fff" stop-opacity="0"/></linearGradient><path d="M-196.6 415.5c.2.7.3 1.5.1 2.2-.2.8-.7 1.5-1.4 2s-1.4.8-2.1 1.1c-.7.2-1.5.4-2.2.4-1.5.1-2.9.1-4.3-.1-.7-.1-1.4-.2-2.1-.4l-.5-.1-.4-.1-1-.3c-2.7-.8-5.1-1.9-7.4-3.1-1.2-.6-2.3-1.1-3.5-1.7-1.2-.6-2.3-1-3.7-1.5 1.3-.4 2.7-.5 4.1-.4 1.4.1 2.7.3 4 .6 1.3.3 2.6.7 3.8 1.1 1.2.4 2.5.8 3.6 1.1l.9.2.5.1.4.1c.6.2 1.2.3 1.8.5 1.2.3 2.4.5 3.6.7 1.2.2 2.3.2 3.3-.1.5-.1.9-.4 1.3-.8.6-.2.9-.8 1.2-1.5z" fill="url(#SVGID_39_)"/></g></g><g class="st36"><defs><path id="SVGID_40_" class="st36" d="M-191.8 390.1c4.6 4.2-4.2 9.4-6.2 10.6-1.7 1.1-3.9 2.1-5.9 3-3.5 1.6-6.8 3.1-9 5.3l4.5 4.5c1.4-1.4 4.3-2.7 7.2-4 2.8-1.3 5.7-2.6 8-4.3 3.1-2.3 4.7-5.1 4.7-8.2-.1-2.6-1.2-4.9-3.3-6.9z"/></defs><clipPath id="SVGID_41_"><use xlink:href="#SVGID_40_" overflow="visible"/></clipPath><g opacity=".63" clip-path="url(#SVGID_41_)"><linearGradient id="SVGID_42_" gradientUnits="userSpaceOnUse" x1="-189.094" y1="390.012" x2="-210.529" y2="411.447"><stop offset="0" stop-color="#fff"/><stop offset="1" stop-color="#fff" stop-opacity="0"/></linearGradient><path d="M-191.9 390c.7.3 1.3.8 1.7 1.5.4.7.5 1.6.5 2.4-.1.8-.4 1.6-.7 2.3-.4.7-.8 1.3-1.3 1.9-.9 1.1-2 2.1-3.1 2.9-.6.4-1.1.8-1.7 1.2l-.5.3-.4.2-.9.5c-2.4 1.3-4.9 2.2-7.4 3.1-1.2.4-2.4.8-3.7 1.3-1.2.4-2.4.9-3.6 1.5.6-1.2 1.6-2.3 2.6-3.2 1-.9 2.2-1.7 3.3-2.4 1.1-.7 2.3-1.3 3.5-2 1.1-.6 2.3-1.2 3.4-1.8l.8-.4.5-.3.4-.2c.5-.3 1.1-.6 1.6-.9 1.1-.6 2.1-1.3 3-2 .9-.7 1.8-1.5 2.3-2.4.3-.4.4-.9.4-1.5-.1-.7-.3-1.3-.7-2z" fill="url(#SVGID_42_)"/></g></g><g class="st33"><defs><path id="SVGID_43_" class="st33" d="M-206.4 368.7c6.2-.3 3.7 9.6 3.1 11.8-.4 2-1.3 4.2-2.1 6.3-1.3 3.6-2.6 7-2.6 10.1h6.4c0-2 1.1-5 2.2-7.9 1.1-2.9 2.2-5.9 2.6-8.7.6-3.9-.2-6.9-2.4-9.1-1.9-1.8-4.3-2.7-7.2-2.5z"/></defs><clipPath id="SVGID_44_"><use xlink:href="#SVGID_43_" overflow="visible"/></clipPath><g opacity=".63" clip-path="url(#SVGID_44_)"><linearGradient id="SVGID_45_" gradientUnits="userSpaceOnUse" x1="-204.552" y1="366.67" x2="-204.552" y2="396.983"><stop offset="0" stop-color="#fff"/><stop offset="1" stop-color="#fff" stop-opacity="0"/></linearGradient><path d="M-206.5 368.6c.7-.2 1.5-.3 2.2-.1.8.2 1.5.7 2 1.4s.8 1.4 1.1 2.1c.2.7.4 1.5.4 2.2.1 1.5.1 2.9-.1 4.3-.1.7-.2 1.4-.4 2.1l-.1.5-.1.4-.3 1c-.8 2.7-1.9 5.1-3.1 7.4-.6 1.2-1.1 2.3-1.7 3.5-.6 1.2-1 2.3-1.5 3.7-.4-1.3-.5-2.7-.4-4.1.1-1.4.3-2.7.6-4 .3-1.3.7-2.6 1.1-3.8.4-1.2.8-2.5 1.1-3.6l.2-.9.1-.5.1-.4c.2-.6.3-1.2.5-1.8.3-1.2.5-2.4.7-3.6.2-1.2.2-2.3-.1-3.3-.1-.5-.4-.9-.8-1.3-.2-.6-.8-.9-1.5-1.2z" fill="url(#SVGID_45_)"/></g></g><g class="st30"><defs><path id="SVGID_46_" class="st30" d="M-231.9 363.8c4.2-4.6 9.4 4.2 10.6 6.2 1.1 1.7 2.1 3.9 3 5.9 1.6 3.5 3.1 6.8 5.3 9l4.5-4.5c-1.4-1.4-2.7-4.3-4-7.2-1.3-2.8-2.6-5.7-4.3-8-2.3-3.1-5.1-4.7-8.2-4.7-2.6.1-4.9 1.2-6.9 3.3z"/></defs><clipPath id="SVGID_47_"><use xlink:href="#SVGID_46_" overflow="visible"/></clipPath><g opacity=".63" clip-path="url(#SVGID_47_)"><linearGradient id="SVGID_48_" gradientUnits="userSpaceOnUse" x1="-231.988" y1="361.094" x2="-210.553" y2="382.529"><stop offset="0" stop-color="#fff"/><stop offset="1" stop-color="#fff" stop-opacity="0"/></linearGradient><path d="M-232 363.9c.3-.7.8-1.3 1.5-1.7.7-.4 1.6-.5 2.4-.5.8.1 1.6.4 2.3.7.7.4 1.3.8 1.9 1.3 1.1.9 2.1 2 2.9 3.1.4.6.8 1.1 1.2 1.7l.3.5.2.4.5.9c1.3 2.4 2.2 4.9 3.1 7.4.4 1.2.8 2.4 1.3 3.7.4 1.2.9 2.4 1.5 3.6-1.2-.6-2.3-1.6-3.2-2.6-.9-1-1.7-2.2-2.4-3.3-.7-1.1-1.3-2.3-2-3.5-.6-1.1-1.2-2.3-1.8-3.4l-.4-.8-.3-.5-.2-.4c-.3-.5-.6-1.1-.9-1.6-.6-1.1-1.3-2.1-2-3-.7-.9-1.5-1.8-2.4-2.3-.4-.3-.9-.4-1.5-.4-.7.1-1.3.3-2 .7z" fill="url(#SVGID_48_)"/></g></g></svg>